<svg id="Layer_1" data-name="Layer 1" xmlns="http://www.w3.org/2000/svg" viewBox="0 0 200 200"><defs><style>.cls-1{fill:#fff;}</style></defs><path d="M155.62,198.35c-7.24-1.71-11.93-7.33-14.21-10.62a7.13,7.13,0,0,0-2.7-4.38,7.48,7.48,0,0,0-5-1,62.13,62.13,0,0,0-14,3c-13.2,4.86-27.33,2.24-34,1-3.21-.6-5-1-5-1-8.2-1.85-9.88-3.25-13-3-2.25.17-5.44,1.21-9.12,5.38-2.28,3.29-7,8.91-14.21,10.62-18.19,4.3-39.84-19.09-36.8-30.87A11.63,11.63,0,0,1,14,160.06c5.43-2.31,11,1,11.87,1.48-.05-7.53,1.18-15.08,6.12-18,2.57-1.49,4.39-.7,5.94-2.47,3.35-3.83-2.94-9.53-3-20.78,0-.11,0-10,6.83-22.4a36.24,36.24,0,0,1,2.25-3.63c1.08-1.5,2-2.47,3.43-4.27,2.56-3.3,2.42-4,4.71-6.94,1.16-1.49,3-3.85,4.55-4.8C61.21,75.6,69,81,70.4,81.9a29.86,29.86,0,0,1,5.45,4.95c.66.78.82,1,3,4,2.52,3.41,3.77,5.12,4.46,5.93a23.86,23.86,0,0,0,6.43,5.94,21.29,21.29,0,0,0,4.36,1.94,21.52,21.52,0,0,0,5.45,1,15,15,0,0,0,10.79-2.93,28.7,28.7,0,0,0,6.43-5.94c.69-.81,1.94-2.52,4.46-5.93,2.14-2.92,2.3-3.18,3-4a29.86,29.86,0,0,1,5.45-4.95c1.39-1,9.19-6.3,13.66-3.61,1.59.95,3.39,3.31,4.55,4.8C150.1,86,150,86.73,152.52,90c1.4,1.8,2.35,2.77,3.43,4.27a36.24,36.24,0,0,1,2.25,3.63c6.81,12.4,6.83,22.29,6.83,22.4,0,11.25-6.32,17-3,20.78,1.55,1.77,3.37,1,5.94,2.47,4.94,2.88,6.17,10.43,6.12,18,.86-.52,6.44-3.79,11.87-1.48a11.63,11.63,0,0,1,6.43,7.42C195.46,179.26,173.81,202.65,155.62,198.35Z"/><path d="M69.9,25.41c-3-7.36-10.48-10.58-15.83-8.41-4.3,1.74-7.27,7-6.43,10.89,0,0,.36,1.71,6.92,8.41,0,0,2.21,4.1,3,5.93,2,5-.53,7.86-.5,14.35,0,2.27.12,8,3.47,12.86,2,2.93,3.36,2.76,13.28,9.46,4.91,3.31,7.36,5,8.91,6.43,6,5.69,5.53,8.92,10.46,11.81,1.28.75,6.41,3.76,10.88,2,4.27-1.71,3.35-6,9.82-15.27a45.29,45.29,0,0,1,8.41-9.4c4.68-3.8,6.24-3.19,8.9-5.44,8.75-7.41,9.5-28.91,1.06-39.64-1.52-1.94-3.73-4-3.95-7.42-.34-5.18,4.33-7,3.95-11.87-.3-4-3.87-8.43-8.41-8.91-4.08-.43-7.75,2.49-9.39,5.45-2.57,4.61.62,7.92-1.49,10.88-2.87,4-10.89.93-21.27,1.48A51,51,0,0,0,69.9,25.41Z"/><circle class="cls-1" cx="109.47" cy="59.54" r="2.72"/><circle class="cls-1" cx="84.74" cy="62.51" r="2.72"/><circle class="cls-1" cx="98.83" cy="89.47" r="3.96"/><polygon class="cls-1" points="54.59 102.05 70.42 154.83 98.13 170 128.48 156.76 143 103.37 98.79 113.33 54.59 102.05"/><ellipse cx="57.91" cy="129.38" rx="13.54" ry="15.58"/><ellipse cx="133.53" cy="129.38" rx="13.54" ry="15.58"/><path class="cls-1" d="M36.33,182.37c.76,1.41,3.13,5.82,1.36,8.27-2.18,3-10,2.26-13.41-2a8,8,0,0,1-1.79-5.8c.4-3.31,3.2-6.58,6.49-6.72C32.87,176,35.2,180.28,36.33,182.37Z"/><circle class="cls-1" cx="15.17" cy="175.11" r="2.72"/><circle class="cls-1" cx="17.64" cy="168.19" r="2.72"/><circle class="cls-1" cx="25.55" cy="169.18" r="2.72"/><path class="cls-1" d="M163.61,181.79c-.74,1.41-3.07,5.84-1.27,8.28,2.19,3,10,2.16,13.38-2.12a8,8,0,0,0,1.74-5.82c-.43-3.31-3.26-6.55-6.55-6.66C167,175.34,164.72,179.69,163.61,181.79Z"/><circle class="cls-1" cx="184.71" cy="174.34" r="2.72"/><circle class="cls-1" cx="182.18" cy="167.43" r="2.72"/><circle class="cls-1" cx="174.27" cy="168.5" r="2.72"/></svg>